<svg width="129" height="130" viewBox="0 0 129 130" fill="none" xmlns="http://www.w3.org/2000/svg">
<g filter="url(#filter0_d_2_8)">
<path d="M4.00959 64C4.00959 52.5865 5.18228 41.8071 7.52766 31.6618C9.77765 21.929 12.9646 12.7798 17.0884 4.21421C17.4094 3.54749 18.0864 3.12805 18.8264 3.12805H20.7271C22.1743 3.12805 23.1199 4.65581 22.5224 5.97384C21.1604 8.9781 19.8864 12.262 18.7004 15.8256C17.154 20.5495 15.8138 25.5904 14.6798 30.9484C13.5457 36.3064 12.6694 41.7913 12.0509 47.4029C11.4323 52.9828 11.123 58.5152 11.123 64C11.123 71.3237 11.6643 78.7107 12.7468 86.1612C13.8292 93.6117 15.3241 100.682 17.2313 107.371C18.8074 112.826 20.5719 117.711 22.5249 122.027C23.1213 123.345 22.1757 124.872 20.729 124.872H18.8283C18.0873 124.872 17.4096 124.451 17.0891 123.783C12.9649 115.188 9.77777 106.024 7.52766 96.2907C5.18228 86.1453 4.00959 75.3818 4.00959 64Z" fill="white"/>
<g clip-path="url(#clip0_2_8)">
<path d="M100.119 51.8299C100.119 52.9035 99.2483 53.7739 98.1746 53.7739H29.8254C28.7517 53.7739 27.8813 52.9035 27.8813 51.8299V5.07246C27.8813 3.9988 28.7517 3.12841 29.8254 3.12841H98.1746C99.2483 3.12841 100.119 3.99879 100.119 5.07246V51.8299ZM47.1418 9.05713C46.0681 9.05713 45.1978 9.92751 45.1978 11.0012V45.9012C45.1978 46.9748 46.0681 47.8452 47.1418 47.8452H58.1089C66.4149 47.8452 72.5976 46.1164 76.6567 42.6587C80.7535 39.2009 82.8022 34.3709 82.8022 28.1694C82.8022 24.3735 81.9563 21.0473 80.2651 18.1909C78.6114 15.3345 75.9988 13.0981 72.4282 11.4819C68.8953 9.8658 64.3101 9.05713 58.6724 9.05713H47.1418ZM61.2661 18.9233C64.3854 18.9234 66.6402 19.7693 68.0308 21.4604C69.4589 23.1141 70.1733 25.3127 70.1733 28.0561C70.1733 31.0252 69.4408 33.4313 67.9751 35.2729C66.5094 37.0769 64.2727 37.9789 61.2661 37.979H59.6018C58.5281 37.979 57.6577 37.1086 57.6577 36.035V20.8674C57.6577 19.7937 58.5281 18.9233 59.6018 18.9233H61.2661Z" fill="white"/>
<rect x="27.8813" y="61.5501" width="72.2374" height="4.89879" rx="1.94405" fill="white"/>
<path d="M100.119 122.928C100.119 124.001 99.2488 124.872 98.1751 124.872H29.8249C28.7512 124.872 27.8809 124.001 27.8809 122.928V76.1691C27.8809 75.0955 28.7512 74.2251 29.8249 74.2251H98.1751C99.2488 74.2251 100.119 75.0955 100.119 76.1691V122.928ZM56.0932 80.1548C55.2189 80.1548 54.4521 80.7385 54.2193 81.5813L44.5812 116.481C44.2392 117.719 45.1706 118.943 46.4551 118.943H55.5862C56.4991 118.943 57.289 118.308 57.485 117.416L58.4496 113.027C58.6456 112.136 59.4355 111.5 60.3483 111.5H67.2218C68.1506 111.5 68.9497 112.158 69.1292 113.069L69.9772 117.374C70.1567 118.286 70.9558 118.943 71.8846 118.943H81.5126C82.8068 118.943 83.7397 117.702 83.3801 116.459L73.285 81.5586C73.0445 80.7271 72.2831 80.1548 71.4175 80.1548H56.0932ZM66.9585 102.212C67.2199 103.423 66.2971 104.566 65.0582 104.566H62.401C61.1545 104.566 60.2301 103.409 60.5048 102.193L61.8635 96.1797C62.3223 94.1489 65.2206 94.1628 65.66 96.1978L66.9585 102.212Z" fill="white"/>
</g>
<path d="M123.99 64C123.99 75.4135 122.818 86.1929 120.472 96.3382C118.222 106.071 115.035 115.22 110.912 123.786C110.591 124.453 109.914 124.872 109.174 124.872H107.273C105.826 124.872 104.88 123.344 105.476 122.025C106.833 119.021 108.094 115.738 109.261 112.174C110.833 107.451 112.186 102.41 113.32 97.0516C114.454 91.6936 115.331 86.2087 115.949 80.5971C116.568 74.9855 116.877 69.4531 116.877 64C116.877 56.6763 116.336 49.2893 115.253 41.8388C114.171 34.3883 112.663 27.3183 110.73 20.6287C109.175 15.1746 107.423 10.2896 105.474 5.97349C104.879 4.65499 105.824 3.12805 107.271 3.12805H109.172C109.913 3.12805 110.59 3.54862 110.911 4.21665C115.035 12.8119 118.222 21.9761 120.472 31.7093C122.818 41.8547 123.99 52.6182 123.99 64Z" fill="white"/>
</g>
<defs>
<filter id="filter0_d_2_8" x="0" y="0" width="133" height="133" filterUnits="userSpaceOnUse" color-interpolation-filters="sRGB">
<feFlood flood-opacity="0" result="BackgroundImageFix"/>
<feColorMatrix in="SourceAlpha" type="matrix" values="0 0 0 0 0 0 0 0 0 0 0 0 0 0 0 0 0 0 127 0" result="hardAlpha"/>
<feMorphology radius="1" operator="dilate" in="SourceAlpha" result="effect1_dropShadow_2_8"/>
<feOffset dx="4" dy="4"/>
<feColorMatrix type="matrix" values="0 0 0 0 0.0480769 0 0 0 0 0.0480769 0 0 0 0 0.0480769 0 0 0 1 0"/>
<feBlend mode="normal" in2="BackgroundImageFix" result="effect1_dropShadow_2_8"/>
<feBlend mode="normal" in="SourceGraphic" in2="effect1_dropShadow_2_8" result="shape"/>
</filter>
<clipPath id="clip0_2_8">
<rect width="72.2383" height="121.743" fill="white" transform="translate(27.8809 3.12841)"/>
</clipPath>
</defs>
</svg>
