<svg width="128" height="130" viewBox="0 0 128 130" fill="none" xmlns="http://www.w3.org/2000/svg">
<g filter="url(#filter0_d_2_8)">
<path d="M5.17657 64C5.17657 52.5865 6.83682 41.8071 10.1573 31.6618C13.3742 21.8331 17.9438 12.5996 23.8661 3.96115C24.2251 3.43747 24.821 3.12805 25.4559 3.12805H29.5389C31.1188 3.12805 32.0532 4.92311 31.2058 6.25649C29.3454 9.18375 27.6019 12.3734 25.9753 15.8256C23.7859 20.5495 21.8885 25.5904 20.283 30.9484C18.6775 36.3064 17.4369 41.7913 16.5611 47.4029C15.6854 52.9828 15.2475 58.5152 15.2475 64C15.2475 71.3237 16.0138 78.7107 17.5463 86.1612C19.0789 93.6117 21.1952 100.682 23.8954 107.371C26.0782 112.707 28.5163 117.498 31.2098 121.744C32.0557 123.078 31.1211 124.872 29.5418 124.872H25.458C24.8219 124.872 24.2251 124.561 23.8663 124.036C17.9439 115.368 13.3742 106.119 10.1573 96.2907C6.83682 86.1453 5.17657 75.3818 5.17657 64Z" fill="white"/>
<g clip-path="url(#clip0_2_8)">
<path d="M90.6899 51.8299C90.6899 52.9035 89.8196 53.7739 88.7459 53.7739H39.2541C38.1804 53.7739 37.3101 52.9035 37.3101 51.8299V5.07246C37.3101 3.9988 38.1804 3.12841 39.2541 3.12841H88.7459C89.8196 3.12841 90.6899 3.99879 90.6899 5.07246V51.8299ZM63.9985 11.5249C61.6504 11.5249 59.4475 11.9669 57.3901 12.8501C55.3329 13.7333 53.5232 14.9612 51.9614 16.5337C50.3995 18.0956 49.1709 19.906 48.2769 21.9634C47.3937 24.0206 46.9468 26.2286 46.936 28.5874C46.9253 30.9464 47.3614 33.155 48.2446 35.2124C49.1387 37.2697 50.3674 39.0841 51.9292 40.6567C53.5018 42.2185 55.3163 43.4414 57.3735 44.3247C59.4417 45.208 61.6503 45.6499 63.9985 45.6499C66.3575 45.6499 68.571 45.208 70.6392 44.3247C72.7073 43.4414 74.5226 42.2186 76.0845 40.6567C77.6461 39.0843 78.8683 37.2695 79.7515 35.2124C80.6347 33.155 81.0718 30.9464 81.061 28.5874C81.0502 26.2285 80.6024 24.0207 79.7192 21.9634C78.836 19.906 77.6141 18.0956 76.0522 16.5337C74.5011 14.961 72.6907 13.7334 70.6226 12.8501C68.5653 11.9669 66.3573 11.5249 63.9985 11.5249Z" fill="white"/>
<rect x="37.3096" y="61.5501" width="53.3809" height="4.89879" rx="1.94405" fill="white"/>
<path d="M90.6904 122.928C90.6904 124.001 89.82 124.872 88.7464 124.872H39.2536C38.1799 124.872 37.3096 124.001 37.3096 122.928V76.1691C37.3096 75.0955 38.1799 74.2251 39.2536 74.2251H88.7464C89.82 74.2251 90.6904 75.0955 90.6904 76.1691V122.928ZM64 82.4858C61.6518 82.4858 59.449 82.9278 57.3916 83.811C55.3343 84.6943 53.5247 85.9221 51.9629 87.4946C50.401 89.0565 49.1724 90.866 48.2783 92.9233C47.395 94.9807 46.9483 97.1894 46.9375 99.5483C46.9267 101.907 47.363 104.115 48.2461 106.172C49.1401 108.23 50.3688 110.045 51.9307 111.618C53.5032 113.179 55.3178 114.402 57.375 115.286C59.4432 116.169 61.6518 116.611 64 116.611C66.3589 116.611 68.5725 116.169 70.6406 115.286C72.7088 114.402 74.524 113.18 76.0859 111.618C77.6478 110.045 78.8707 108.23 79.7539 106.172C80.637 104.115 81.0732 101.907 81.0625 99.5483C81.0517 97.1894 80.605 94.9807 79.7217 92.9233C78.8384 90.866 77.6155 89.0565 76.0537 87.4946C74.5027 85.9221 72.693 84.6943 70.625 83.811C68.5676 82.9278 66.359 82.4858 64 82.4858Z" fill="white"/>
</g>
<path d="M122.823 64C122.823 75.4135 121.163 86.1929 117.843 96.3382C114.626 106.167 110.056 115.4 104.134 124.039C103.775 124.563 103.179 124.872 102.544 124.872H98.4611C96.8812 124.872 95.9464 123.077 96.7914 121.742C98.6442 118.815 100.37 115.626 101.97 112.174C104.196 107.451 106.111 102.41 107.717 97.0516C109.323 91.6936 110.563 86.2087 111.439 80.5971C112.315 74.9855 112.752 69.4531 112.752 64C112.752 56.6763 111.986 49.2893 110.454 41.8388C108.921 34.3883 106.787 27.3183 104.05 20.6287C101.896 15.2935 99.4759 10.5028 96.7886 6.2566C95.944 4.92206 96.8789 3.12805 98.4582 3.12805H102.542C103.178 3.12805 103.775 3.43859 104.134 3.9638C110.056 12.6321 114.626 21.8806 117.843 31.7093C121.163 41.8547 122.823 52.6182 122.823 64Z" fill="white"/>
</g>
<defs>
<filter id="filter0_d_2_8" x="0" y="0" width="133" height="133" filterUnits="userSpaceOnUse" color-interpolation-filters="sRGB">
<feFlood flood-opacity="0" result="BackgroundImageFix"/>
<feColorMatrix in="SourceAlpha" type="matrix" values="0 0 0 0 0 0 0 0 0 0 0 0 0 0 0 0 0 0 127 0" result="hardAlpha"/>
<feMorphology radius="1" operator="dilate" in="SourceAlpha" result="effect1_dropShadow_2_8"/>
<feOffset dx="4" dy="4"/>
<feColorMatrix type="matrix" values="0 0 0 0 0.0480769 0 0 0 0 0.0480769 0 0 0 0 0.0480769 0 0 0 1 0"/>
<feBlend mode="normal" in2="BackgroundImageFix" result="effect1_dropShadow_2_8"/>
<feBlend mode="normal" in="SourceGraphic" in2="effect1_dropShadow_2_8" result="shape"/>
</filter>
<clipPath id="clip0_2_8">
<rect width="53.3809" height="121.743" fill="white" transform="translate(37.3096 3.12841)"/>
</clipPath>
</defs>
</svg>
