<svg width="16" height="77" viewBox="0 0 16 77" fill="none"
  xmlns="http://www.w3.org/2000/svg" preserveAspectRatio="none">
  <path d="M14.512 76.296C14.032 76.296 13.24 75.744 12.136 74.64C11.032 73.584 9.784 72 8.392 69.888C7.048 67.824 5.728 65.256 4.432 62.184C3.184 59.112 2.152 55.584 1.336 51.6C0.52 47.616 0.112 43.224 0.112 38.424C0.112 33.576 0.52 29.16 1.336 25.176C2.152 21.192 3.184 17.664 4.432 14.592C5.728 11.52 7.048 8.95201 8.392 6.88801C9.784 4.77601 11.032 3.19201 12.136 2.13601C13.24 1.03201 14.032 0.480011 14.512 0.480011C14.848 0.480011 15.016 0.720011 15.016 1.20001C13 3.07201 11.224 5.42401 9.688 8.25601C8.2 11.04 6.952 14.112 5.944 17.472C4.936 20.832 4.168 24.312 3.64 27.912C3.16 31.512 2.92 35.04 2.92 38.496C2.92 41.856 3.16 45.336 3.64 48.936C4.12 52.488 4.864 55.944 5.872 59.304C6.88 62.664 8.128 65.736 9.616 68.52C11.152 71.352 12.952 73.704 15.016 75.576C15.016 76.056 14.848 76.296 14.512 76.296Z" fill="currentColor"/>
</svg>
  