<svg width="15" height="77" viewBox="0 0 15 77" fill="none"
  xmlns="http://www.w3.org/2000/svg" preserveAspectRatio="none">
  <path d="M0.535433 76.296C1.01543 76.296 1.80743 75.744 2.91143 74.64C4.01543 73.584 5.23943 72 6.58343 69.888C7.97543 67.824 9.29543 65.256 10.5434 62.184C11.8394 59.112 12.8954 55.584 13.7114 51.6C14.5274 47.616 14.9354 43.224 14.9354 38.424C14.9354 33.576 14.5274 29.16 13.7114 25.176C12.8954 21.192 11.8394 17.664 10.5434 14.592C9.29543 11.52 7.97543 8.95201 6.58343 6.88801C5.23943 4.77601 4.01543 3.19201 2.91143 2.13601C1.80743 1.03201 1.01543 0.480011 0.535433 0.480011C0.199433 0.480011 0.0314331 0.720011 0.0314331 1.20001C2.04743 3.07201 3.79943 5.42401 5.28743 8.25601C6.82343 11.04 8.09543 14.112 9.10343 17.472C10.1114 20.832 10.8554 24.312 11.3354 27.912C11.8634 31.512 12.1274 35.04 12.1274 38.496C12.1274 41.856 11.8874 45.336 11.4074 48.936C10.9274 52.488 10.1834 55.944 9.17543 59.304C8.16743 62.664 6.89543 65.736 5.35943 68.52C3.87143 71.352 2.09543 73.704 0.0314331 75.576C0.0314331 76.056 0.199433 76.296 0.535433 76.296Z" fill="currentColor"/>
</svg>
  